<?xml version="1.0" encoding="UTF-8"?>
<svg
  width="128" height="128" viewBox="0 0 128 128"
  xmlns="http://www.w3.org/2000/svg"
  fill="none" stroke="currentColor" stroke-width="6"
  stroke-linecap="round" stroke-linejoin="round"
  role="img" aria-label="카툰 스타일 집 아이콘"
>
  <defs>
    <!-- 지붕에 가벼운 그라디언트 -->
    <linearGradient id="roofGrad" x1="0" y1="0" x2="1" y2="1">
      <stop offset="0" stop-color="#FF6B6B"/>
      <stop offset="1" stop-color="#FF8E53"/>
    </linearGradient>
  </defs>

  <!-- 지붕 채움 -->
  <path d="M16 62 L64 24 L112 62 Z" fill="url(#roofGrad)"/>

  <!-- 본체 채움 -->
  <path
    d="M24 62 v42 a8 8 0 0 0 8 8 h64 a8 8 0 0 0 8-8 v-42 Z"
    fill="#FFF3C4"
  />

  <!-- 굵은 외곽선(카툰 느낌) -->
  <path d="M16 62 L64 24 L112 62" />
  <path d="M24 62 v42 a8 8 0 0 0 8 8 h64 a8 8 0 0 0 8-8 v-42" />

  <!-- 굴뚝 -->
  <rect x="84" y="30" width="12" height="10" rx="2" fill="#FFD2A8" stroke="currentColor"/>
  <path d="M88 30 v14" />

  <!-- 문 -->
  <rect x="60" y="84" width="24" height="28" rx="4" fill="#D8B89E" stroke="currentColor"/>
  <circle cx="78" cy="98" r="2" fill="currentColor" stroke="none"/>

  <!-- 창문 -->
  <rect x="40" y="76" width="18" height="18" rx="3" fill="#FFFFFF" stroke="currentColor"/>
  <path d="M49 76 v18 M40 85 h18" />

  <!-- 귀엽게 보이도록 얇은 바닥 그림자 -->
  <ellipse cx="64" cy="114" rx="36" ry="4" fill="rgba(0,0,0,0.08)" stroke="none"/>
</svg>
