{"asset":{"version":"2.0","generator":"Unity 2022.3.16f1 glTFast 6.14.1"},"nodes":[{"name":"Bath_01","mesh":0}],"buffers":[{"uri":"Bath_01.bin","byteLength":50964}],"bufferViews":[{"buffer":0,"byteLength":9252,"target":34963},{"buffer":0,"byteLength":41712,"byteOffset":9252,"byteStride":48,"target":34962}],"accessors":[{"bufferView":1,"componentType":5126,"count":869,"type":"VEC3","max":[1.43051147E-06,0.773700058,1.27104473],"min":[-1.271054,0,-5.24520874E-06]},{"bufferView":1,"componentType":5126,"count":869,"type":"VEC3","byteOffset":12},{"bufferView":1,"componentType":5126,"count":869,"type":"VEC4","byteOffset":24},{"bufferView":1,"componentType":5126,"count":869,"type":"VEC2","byteOffset":40},{"bufferView":0,"componentType":5123,"count":4626,"type":"SCALAR"}],"images":[{"name":"Textures.jpg","uri":"Textures.jpg","mimeType":"image/jpeg"}],"materials":[{"name":"Color","pbrMetallicRoughness":{"metallicFactor":0,"roughnessFactor":0.932243764,"baseColorTexture":{"index":0}}}],"meshes":[{"name":"Bath_01","primitives":[{"attributes":{"POSITION":0,"NORMAL":1,"TANGENT":2,"TEXCOORD_0":3},"indices":4,"material":0}]}],"scene":0,"scenes":[{"name":"Bath_01","nodes":[0]}],"textures":[{"source":0}]}